<svg width="16" height="16" viewBox="0 0 16 16" fill="none" xmlns="http://www.w3.org/2000/svg">
<g clipPath="url(#clip0_8_1479)">
<path d="M6.26001 9.19277V10.4928C5.68501 10.2928 5.09543 10.2344 4.49126 10.3178C3.88709 10.4011 3.33709 10.6178 2.84126 10.9678C2.34543 11.3178 1.95793 11.7636 1.67876 12.3053C1.39959 12.8469 1.26001 13.4219 1.26001 14.0303H0.0100098C0.0100098 13.2553 0.180843 12.5199 0.52251 11.824C0.864176 11.1282 1.33918 10.5449 1.94751 10.074C2.55584 9.60319 3.23918 9.28861 3.99751 9.13027C4.75584 8.97194 5.51001 8.99277 6.26001 9.19277ZM5.01001 8.40527C4.32668 8.40527 3.69751 8.23444 3.12251 7.89277C2.55584 7.55944 2.10584 7.10944 1.77251 6.54277C1.43084 5.96777 1.26001 5.33861 1.26001 4.65527C1.26001 3.97194 1.43084 3.34277 1.77251 2.76777C2.10584 2.20111 2.55584 1.75111 3.12251 1.41777C3.69751 1.07611 4.32668 0.905273 5.01001 0.905273C5.69334 0.905273 6.32251 1.07611 6.89751 1.41777C7.46418 1.75111 7.91418 2.20111 8.24751 2.76777C8.58918 3.34277 8.76001 3.97194 8.76001 4.65527C8.76001 5.33861 8.58918 5.96777 8.24751 6.54277C7.91418 7.10944 7.46418 7.55944 6.89751 7.89277C6.32251 8.23444 5.69334 8.40527 5.01001 8.40527ZM5.01001 7.15527C5.46001 7.15527 5.87668 7.04277 6.26001 6.81777C6.64334 6.59277 6.94751 6.28861 7.17251 5.90527C7.39751 5.52194 7.51001 5.10527 7.51001 4.65527C7.51001 4.20527 7.39751 3.78861 7.17251 3.40527C6.94751 3.02194 6.64334 2.71777 6.26001 2.49277C5.87668 2.26777 5.46001 2.15527 5.01001 2.15527C4.56001 2.15527 4.14334 2.26777 3.76001 2.49277C3.37668 2.71777 3.07251 3.02194 2.84751 3.40527C2.62251 3.78861 2.51001 4.20527 2.51001 4.65527C2.51001 5.10527 2.62251 5.52194 2.84751 5.90527C3.07251 6.28861 3.37668 6.59277 3.76001 6.81777C4.14334 7.04277 4.56001 7.15527 5.01001 7.15527ZM8.76001 10.9053V9.03027H10.01V10.9053H11.885V12.1553H10.01V14.0303H8.76001V12.1553H6.88501V10.9053H8.76001Z" fill="#FF375F"/>
</g>
<defs>
<clipPath id="clip0_8_1479">
<rect width="15.02" height="15" fill="white" transform="matrix(1 0 0 -1 0 15.2803)"/>
</clipPath>
</defs>
</svg>
