<svg width="20" height="20" viewBox="0 0 20 20" fill="none" xmlns="http://www.w3.org/2000/svg">
<path d="M10.275 3.71253C10.4508 3.53697 10.6891 3.43835 10.9375 3.43835C11.1859 3.43835 11.4242 3.53697 11.6 3.71253L16.9125 9.02503C17.0881 9.20081 17.1867 9.43909 17.1867 9.68753C17.1867 9.93597 17.0881 10.1742 16.9125 10.35L11.6 15.6625C11.4222 15.828 11.1871 15.9182 10.9442 15.914C10.7013 15.9098 10.4695 15.8116 10.2975 15.64C10.1259 15.468 10.0278 15.2362 10.0236 14.9933C10.0194 14.7504 10.1095 14.5154 10.275 14.3375L13.9875 10.625H4.6875C4.43886 10.625 4.2004 10.5263 4.02459 10.3504C3.84877 10.1746 3.75 9.93617 3.75 9.68753C3.75 9.43889 3.84877 9.20043 4.02459 9.02462C4.2004 8.8488 4.43886 8.75003 4.6875 8.75003H13.9875L10.275 5.03753C10.0994 4.86175 10.0008 4.62347 10.0008 4.37503C10.0008 4.12659 10.0994 3.88831 10.275 3.71253Z" fill="#FF375F"/>
</svg>
