<svg width="13" height="14" viewBox="0 0 13 14" fill="none" xmlns="http://www.w3.org/2000/svg">
<path d="M9.38477 1.875H11.8848C12.0598 1.875 12.2077 1.93542 12.3285 2.05625C12.4493 2.17708 12.5098 2.325 12.5098 2.5V12.5C12.5098 12.675 12.4493 12.8229 12.3285 12.9437C12.2077 13.0646 12.0598 13.125 11.8848 13.125H0.634766C0.459766 13.125 0.311849 13.0646 0.191016 12.9437C0.0701823 12.8229 0.00976562 12.675 0.00976562 12.5V2.5C0.00976562 2.325 0.0701823 2.17708 0.191016 2.05625C0.311849 1.93542 0.459766 1.875 0.634766 1.875H3.13477V0.625H4.38477V1.875H8.13477V0.625H9.38477V1.875ZM1.25977 5.625V11.875H11.2598V5.625H1.25977ZM2.50977 8.125H5.63477V10.625H2.50977V8.125Z" fill="#FF375F"/>
</svg>
