<svg width="16" height="16" viewBox="0 0 16 16" fill="none" xmlns="http://www.w3.org/2000/svg">
<g clipPath="url(#clip0_8_1482)">
<path d="M3.11001 10.9053H12.01V3.40527H2.01001V11.7678L3.11001 10.9053ZM3.54751 12.1553L0.76001 14.3428V2.78027C0.76001 2.60527 0.820426 2.45736 0.94126 2.33652C1.06209 2.21569 1.21001 2.15527 1.38501 2.15527H12.635C12.81 2.15527 12.9579 2.21569 13.0788 2.33652C13.1996 2.45736 13.26 2.60527 13.26 2.78027V11.5303C13.26 11.7053 13.1996 11.8532 13.0788 11.974C12.9579 12.0949 12.81 12.1553 12.635 12.1553H3.54751Z" fill="#FF375F"/>
</g>
<defs>
<clipPath id="clip0_8_1482">
<rect width="15.02" height="15" fill="white" transform="matrix(1 0 0 -1 0.75 15.2803)"/>
</clipPath>
</defs>
</svg>
