<svg width="17" height="17" viewBox="0 0 17 17" fill="none" xmlns="http://www.w3.org/2000/svg">
<path d="M9 6.17985H12L11.6667 7.51318H9V13.5132H7.66667V7.51318H5V6.17985H7.66667V4.92652C7.66667 4.36652 7.69778 3.93096 7.76 3.61985C7.80444 3.36207 7.89333 3.11318 8.02667 2.87318C8.25778 2.43763 8.59111 2.10429 9.02667 1.87318C9.26667 1.73985 9.51556 1.65096 9.77333 1.60652C10.0844 1.54429 10.52 1.51318 11.08 1.51318C11.4356 1.51318 11.7422 1.54429 12 1.60652V2.84652H11.08C10.6533 2.84652 10.3467 2.85985 10.16 2.88652C9.97333 2.91318 9.80444 2.96652 9.65333 3.04652C9.45778 3.15318 9.30667 3.30429 9.2 3.49985C9.12 3.65096 9.06667 3.81985 9.04 4.00652C9.01333 4.19318 9 4.49985 9 4.92652V6.17985Z" fill="#002856"/>
</svg>
