<svg width="17" height="18" viewBox="0 0 17 18" fill="none" xmlns="http://www.w3.org/2000/svg">
<path d="M7.5 0.166275C8.85556 0.166275 10.1167 0.505163 11.2833 1.18294C12.4167 1.84961 13.3167 2.74961 13.9833 3.88294C14.6611 5.04961 15 6.31072 15 7.66628C15 9.02183 14.6611 10.2829 13.9833 11.4496C13.3167 12.5829 12.4167 13.4829 11.2833 14.1496C10.1167 14.8274 8.85556 15.1663 7.5 15.1663C6.14444 15.1663 4.88333 14.8274 3.71667 14.1496C2.58333 13.4829 1.68333 12.5829 1.01667 11.4496C0.338889 10.2829 0 9.02183 0 7.66628C0 6.31072 0.338889 5.04961 1.01667 3.88294C1.68333 2.74961 2.58333 1.84961 3.71667 1.18294C4.88333 0.505163 6.14444 0.166275 7.5 0.166275ZM7.5 13.4996C8.55556 13.4996 9.53889 13.2329 10.45 12.6996C11.3278 12.1885 12.0222 11.4941 12.5333 10.6163C13.0667 9.70516 13.3333 8.72183 13.3333 7.66628C13.3333 6.61072 13.0667 5.62739 12.5333 4.71628C12.0222 3.8385 11.3278 3.14405 10.45 2.63294C9.53889 2.09961 8.55556 1.83294 7.5 1.83294C6.44444 1.83294 5.46111 2.09961 4.55 2.63294C3.67222 3.14405 2.97778 3.8385 2.46667 4.71628C1.93333 5.62739 1.66667 6.61072 1.66667 7.66628C1.66667 8.72183 1.93333 9.70516 2.46667 10.6163C2.97778 11.4941 3.67222 12.1885 4.55 12.6996C5.46111 13.2329 6.44444 13.4996 7.5 13.4996ZM14.5667 13.5663L16.9333 15.9163L15.75 17.0996L13.4 14.7329L14.5667 13.5663Z" fill="#FF375F"/>
</svg>
