<svg width="13" height="14" viewBox="0 0 13 14" fill="none" xmlns="http://www.w3.org/2000/svg">
<path d="M6.24194 13.3311C5.10861 13.3311 4.05861 13.0477 3.09194 12.4811C2.15028 11.9227 1.40028 11.1727 0.841943 10.2311C0.275277 9.26439 -0.00805664 8.21439 -0.00805664 7.08105C-0.00805664 5.94772 0.275277 4.89772 0.841943 3.93105C1.40028 2.98939 2.15028 2.23939 3.09194 1.68105C4.05861 1.11439 5.10861 0.831055 6.24194 0.831055C7.37528 0.831055 8.42528 1.11439 9.39194 1.68105C10.3336 2.23939 11.0836 2.98939 11.6419 3.93105C12.2086 4.89772 12.4919 5.94772 12.4919 7.08105C12.4919 8.21439 12.2086 9.26439 11.6419 10.2311C11.0836 11.1727 10.3336 11.9227 9.39194 12.4811C8.42528 13.0477 7.37528 13.3311 6.24194 13.3311ZM4.81694 11.8686C4.19194 10.5519 3.83778 9.16439 3.75444 7.70605H1.27944C1.36278 8.35605 1.56278 8.9623 1.87944 9.5248C2.19611 10.0873 2.60653 10.5727 3.11069 10.9811C3.61486 11.3894 4.18361 11.6852 4.81694 11.8686ZM5.00444 7.70605C5.10444 9.20605 5.51694 10.6144 6.24194 11.9311C6.97528 10.6144 7.38778 9.20605 7.47944 7.70605H5.01694H5.00444ZM11.2044 7.70605H8.72944C8.64611 9.16439 8.29611 10.5519 7.67944 11.8686C8.30444 11.6852 8.86903 11.3894 9.37319 10.9811C9.87736 10.5727 10.2878 10.0873 10.6044 9.5248C10.9211 8.9623 11.1211 8.35605 11.2044 7.70605ZM1.27944 6.45605H3.75444C3.83778 4.99772 4.19194 3.61022 4.81694 2.29355C4.18361 2.47689 3.61486 2.77272 3.11069 3.18105C2.60653 3.58939 2.19611 4.0748 1.87944 4.6373C1.56278 5.1998 1.36278 5.80605 1.27944 6.45605ZM5.01694 6.45605H7.46694C7.37528 4.95605 6.96694 3.54772 6.24194 2.23105C5.50861 3.54772 5.10028 4.95605 5.01694 6.45605ZM7.67944 2.29355C8.29611 3.61022 8.64611 4.99772 8.72944 6.45605H11.2044C11.1211 5.80605 10.9211 5.1998 10.6044 4.6373C10.2878 4.0748 9.87736 3.58939 9.37319 3.18105C8.86903 2.77272 8.30028 2.47689 7.66694 2.29355H7.67944Z" fill="#FF375F"/>
</svg>
