<svg width="16" height="17" viewBox="0 0 16 17" fill="none" xmlns="http://www.w3.org/2000/svg">
<path d="M7.66667 6.36C7.98667 6.04 8.33778 5.79111 8.72 5.61333C9.12889 5.42667 9.55556 5.33333 10 5.33333C10.6667 5.33333 11.28 5.49778 11.84 5.82667C12.4 6.15556 12.8444 6.6 13.1733 7.16C13.5022 7.72 13.6667 8.33333 13.6667 9V14H12.3333V9C12.3333 8.57333 12.2289 8.18222 12.02 7.82667C11.8111 7.47111 11.5289 7.18889 11.1733 6.98C10.8178 6.77111 10.4267 6.66667 10 6.66667C9.57333 6.66667 9.18222 6.77111 8.82667 6.98C8.47111 7.18889 8.18889 7.47111 7.98 7.82667C7.77111 8.18222 7.66667 8.57333 7.66667 9V14H6.33333V5.66667H7.66667V6.36ZM3 4.33333C2.72444 4.33333 2.48889 4.23556 2.29333 4.04C2.09778 3.84444 2 3.60889 2 3.33333C2 3.05778 2.09778 2.82222 2.29333 2.62667C2.48889 2.43111 2.72444 2.33333 3 2.33333C3.27556 2.33333 3.51111 2.43111 3.70667 2.62667C3.90222 2.82222 4 3.05778 4 3.33333C4 3.60889 3.90222 3.84444 3.70667 4.04C3.51111 4.23556 3.27556 4.33333 3 4.33333ZM2.33333 5.66667H3.66667V14H2.33333V5.66667Z" fill="#002856"/>
</svg>
