<svg width="18" height="19" viewBox="0 0 18 19" fill="none" xmlns="http://www.w3.org/2000/svg">
<g clip-path="url(#clip0_8_1520)">
<path d="M6.18 1.1298C5.06 1.1298 4.03 1.40981 3.09 1.9698C2.15 2.52981 1.4 3.27981 0.84 4.2198C0.28 5.15981 0 6.2098 0 7.36981C0 8.68981 0.92 10.7698 2.76 13.6098C3.68 15.0498 4.68 16.4498 5.76 17.8098C5.88 17.9698 6.02 18.0498 6.18 18.0498C6.34 18.0498 6.48 17.9698 6.6 17.8098C7.68 16.4498 8.68 15.0498 9.6 13.6098C11.44 10.7698 12.36 8.6698 12.36 7.3098C12.36 6.18981 12.08 5.15981 11.52 4.2198C10.96 3.27981 10.21 2.52981 9.27 1.9698C8.33 1.40981 7.3 1.1298 6.18 1.1298ZM6.18 16.5498C4.98 14.9898 3.92 13.4498 3 11.9298C1.76 9.8498 1.14 8.3398 1.14 7.39981C1.14 6.4598 1.36 5.5998 1.8 4.81981C2.24 4.03981 2.85 3.4198 3.63 2.95981C4.41 2.49981 5.26 2.2698 6.18 2.2698C7.1 2.2698 7.95 2.49981 8.73 2.95981C9.51 3.4198 10.12 4.03981 10.56 4.81981C11 5.5998 11.22 6.4598 11.22 7.39981C11.22 8.3398 10.6 9.8498 9.36 11.9298C8.48 13.4098 7.42 14.9498 6.18 16.5498ZM6.18 3.40981C5.26 3.40981 4.47 3.73981 3.81 4.39981C3.15 5.0598 2.82 5.8498 2.82 6.7698C2.82 7.68981 3.15 8.4798 3.81 9.1398C4.47 9.7998 5.26 10.1298 6.18 10.1298C7.1 10.1298 7.89 9.7998 8.55 9.1398C9.21 8.4798 9.54 7.68981 9.54 6.7698C9.54 5.8498 9.21 5.0598 8.55 4.39981C7.89 3.73981 7.1 3.40981 6.18 3.40981ZM6.18 9.0498C5.54 9.0498 5.01 8.82981 4.59 8.3898C4.17 7.94981 3.96 7.4198 3.96 6.7998C3.96 6.1798 4.17 5.64981 4.59 5.2098C5.01 4.7698 5.54 4.5498 6.18 4.5498C6.82 4.5498 7.36 4.7698 7.8 5.2098C8.24 5.64981 8.46 6.1798 8.46 6.7998C8.46 7.4198 8.24 7.94981 7.8 8.3898C7.36 8.82981 6.82 9.0498 6.18 9.0498Z" fill="#FF375F"/>
</g>
<defs>
<clipPath id="clip0_8_1520">
<rect width="18" height="18" fill="white" transform="matrix(1 0 0 -1 0 18.5898)"/>
</clipPath>
</defs>
</svg>
