<svg width="18" height="19" viewBox="0 0 18 19" fill="none" xmlns="http://www.w3.org/2000/svg">
<g clip-path="url(#clip0_8_1526)">
<path d="M16.44 2.87998H1.56C1.12 2.87998 0.75 3.02998 0.45 3.32998C0.15 3.62998 0 3.99998 0 4.43998V13.92C0 14.36 0.15 14.73 0.45 15.03C0.75 15.33 1.12 15.48 1.56 15.48H16.44C16.88 15.48 17.25 15.33 17.55 15.03C17.85 14.73 18 14.36 18 13.92V4.43998C18 3.99998 17.85 3.62998 17.55 3.32998C17.25 3.02998 16.88 2.87998 16.44 2.87998ZM16.2 3.89998C15.96 4.13998 14.2 5.89998 10.92 9.17998L9.42 10.68C9.3 10.8 9.16 10.86 9 10.86C8.84 10.86 8.7 10.8 8.58 10.68L1.8 3.89998H16.2ZM1.08 13.74V4.61998L5.58 9.17998L1.08 13.74ZM1.8 14.46L6.36 9.89998L7.86 11.46C8.14 11.74 8.52 11.88 9 11.88C9.48 11.88 9.86 11.74 10.14 11.46L11.64 9.89998L16.2 14.46H1.8ZM16.92 13.74L12.42 9.17998L16.92 4.61998V13.74Z" fill="#FF375F"/>
</g>
<defs>
<clipPath id="clip0_8_1526">
<rect width="18" height="18" fill="white" transform="matrix(1 0 0 -1 0 18.1802)"/>
</clipPath>
</defs>
</svg>
