<svg width="15" height="14" viewBox="0 0 15 14" fill="none" xmlns="http://www.w3.org/2000/svg">
<g clipPath="url(#clip0_8_1575)">
<path d="M7.01196 -0.00878906C5.73641 -0.00878906 4.56196 0.302322 3.48863 0.924544C2.4153 1.54677 1.56752 2.39454 0.945296 3.46788C0.323074 4.54121 0.0119629 5.71566 0.0119629 6.99121C0.0119629 8.26677 0.323074 9.44121 0.945296 10.5145C1.56752 11.5879 2.4153 12.4357 3.48863 13.0579C4.56196 13.6801 5.73641 13.9912 7.01196 13.9912C8.28752 13.9912 9.46196 13.6801 10.5353 13.0579C11.6086 12.4357 12.4564 11.5879 13.0786 10.5145C13.7009 9.44121 14.012 8.26677 14.012 6.99121C14.012 5.71566 13.7009 4.54121 13.0786 3.46788C12.4564 2.39454 11.6086 1.54677 10.5353 0.924544C9.46196 0.302322 8.28752 -0.00878906 7.01196 -0.00878906ZM7.01196 13.0112C5.92307 13.0112 4.91974 12.739 4.00196 12.1945C3.08419 11.6501 2.35307 10.919 1.80863 10.0012C1.26419 9.08343 0.991963 8.0801 0.991963 6.99121C0.991963 5.90232 1.26419 4.89899 1.80863 3.98121C2.35307 3.06343 3.08419 2.33232 4.00196 1.78788C4.91974 1.24343 5.92307 0.97121 7.01196 0.97121C8.10085 0.97121 9.10419 1.24343 10.022 1.78788C10.9397 2.33232 11.6709 3.06343 12.2153 3.98121C12.7597 4.89899 13.032 5.90232 13.032 6.99121C13.032 8.0801 12.7597 9.08343 12.2153 10.0012C11.6709 10.919 10.9397 11.6501 10.022 12.1945C9.10419 12.739 8.10085 13.0112 7.01196 13.0112ZM7.01196 2.51121C6.88752 2.51121 6.77085 2.55788 6.66196 2.65121C6.55307 2.74454 6.49863 2.85343 6.49863 2.97788V6.47788H2.99863C2.87419 6.47788 2.7653 6.53232 2.67196 6.64121C2.57863 6.7501 2.53196 6.86677 2.53196 6.99121C2.53196 7.11566 2.57863 7.23232 2.67196 7.34121C2.7653 7.4501 2.87419 7.50454 2.99863 7.50454H7.01196C7.13641 7.50454 7.25307 7.4501 7.36196 7.34121C7.47085 7.23232 7.5253 7.11566 7.5253 6.99121V2.97788C7.5253 2.85343 7.47085 2.74454 7.36196 2.65121C7.25307 2.55788 7.13641 2.51121 7.01196 2.51121Z" fill="#FF375F"/>
</g>
<defs>
<clipPath id="clip0_8_1575">
<rect width="14" height="14" fill="white" transform="matrix(1 0 0 -1 0.0119629 13.9912)"/>
</clipPath>
</defs>
</svg>
