<svg width="15" height="14" viewBox="0 0 15 14" fill="none" xmlns="http://www.w3.org/2000/svg">
<g clipPath="url(#clip0_8_1570)">
<path d="M11.2719 8.67121C10.9919 8.3601 10.6652 8.20454 10.2919 8.20454C9.91855 8.20454 9.57633 8.3601 9.26522 8.67121L8.33188 9.60454L7.81855 9.32454C6.94744 8.76454 6.13855 8.01788 5.39188 7.08454C5.01855 6.64899 4.75411 6.22899 4.59855 5.82454L5.53188 4.93788C5.843 4.62677 5.99855 4.28454 5.99855 3.91121C5.99855 3.53788 5.843 3.19565 5.53188 2.88454L3.89855 1.25121C3.58744 0.9401 3.253 0.784544 2.89522 0.784544C2.53744 0.784544 2.203 0.9401 1.89188 1.25121L0.865217 2.27788C0.491884 2.65121 0.274106 3.10232 0.211884 3.63121C0.180773 4.28454 0.320773 5.01566 0.631884 5.82454C1.09855 7.1001 1.84522 8.3601 2.87188 9.60454C4.17855 11.1601 5.71855 12.3579 7.49188 13.1979C8.48744 13.6645 9.35855 13.929 10.1052 13.9912H10.2919C10.9763 13.9912 11.5363 13.7423 11.9719 13.2445H12.0186C12.1119 13.1201 12.2674 12.949 12.4852 12.7312L12.9052 12.3112C13.2163 12.0001 13.3719 11.6579 13.3719 11.2845C13.3719 10.9112 13.2163 10.5845 12.9052 10.3045L11.2719 8.67121ZM12.3452 11.7979L11.9719 12.1245C11.723 12.3734 11.5363 12.5757 11.4119 12.7312C11.1008 13.0423 10.7274 13.1979 10.2919 13.1979H10.1519C9.49855 13.1668 8.73633 12.9334 7.86522 12.4979C6.18522 11.689 4.723 10.5534 3.47855 9.09121C2.51411 7.90899 1.81411 6.72677 1.37855 5.54454C1.09855 4.82899 0.989662 4.20677 1.05188 3.67788C1.083 3.33566 1.20744 3.05566 1.42522 2.83788L2.45188 1.81121C2.60744 1.65565 2.75522 1.57788 2.89522 1.57788C3.03522 1.57788 3.183 1.65565 3.33855 1.81121L4.97188 3.44454C5.25188 3.75566 5.25188 4.05121 4.97188 4.33121L4.69188 4.61121C4.41188 4.92232 4.163 5.15565 3.94522 5.31121V5.35788C3.75855 5.54454 3.71188 5.76232 3.80522 6.01121V6.05788C3.99188 6.52454 4.303 7.03788 4.73855 7.59788C5.54744 8.59343 6.43411 9.38677 7.39855 9.97788L8.05188 10.3512C8.17633 10.4134 8.30077 10.4445 8.42522 10.4445C8.54966 10.4445 8.67411 10.3668 8.79855 10.2112L9.82522 9.23121C9.98077 9.07566 10.1286 8.99788 10.2686 8.99788C10.4086 8.99788 10.5563 9.07566 10.7119 9.23121L12.3452 10.8645C12.6252 11.1445 12.6252 11.4557 12.3452 11.7979ZM7.77188 3.30454C8.54966 3.4601 9.22633 3.81788 9.80188 4.37788C10.3774 4.93788 10.7274 5.62232 10.8519 6.43121C10.883 6.52454 10.9374 6.60232 11.0152 6.66454C11.093 6.72677 11.1786 6.75788 11.2719 6.75788H11.3186C11.443 6.72677 11.5363 6.66454 11.5986 6.57121C11.6608 6.47788 11.6763 6.38454 11.6452 6.29121C11.4897 5.32677 11.0697 4.50232 10.3852 3.81788C9.70077 3.13343 8.87633 2.71343 7.91188 2.55788C7.81855 2.52677 7.72522 2.54232 7.63188 2.60454C7.53855 2.66677 7.48411 2.75232 7.46855 2.86121C7.453 2.9701 7.47633 3.07121 7.53855 3.16454C7.60077 3.25788 7.67855 3.30454 7.77188 3.30454ZM14.2119 6.15121C13.9319 4.59566 13.2241 3.2501 12.0886 2.11454C10.953 0.978989 9.59188 0.271211 8.00522 -0.00878906C7.91188 -0.00878906 7.81855 0.0223217 7.72522 0.0845442C7.63188 0.146767 7.57744 0.232322 7.56188 0.341211C7.54633 0.4501 7.56966 0.543433 7.63188 0.621211C7.69411 0.698989 7.78744 0.753433 7.91188 0.784544C9.31188 1.03343 10.5174 1.66343 11.5286 2.67454C12.5397 3.68566 13.1697 4.89121 13.4186 6.29121C13.4186 6.38454 13.4574 6.46232 13.5352 6.52454C13.613 6.58677 13.6986 6.61788 13.7919 6.61788H13.8852C13.9786 6.61788 14.0563 6.57121 14.1186 6.47788C14.1808 6.38454 14.2119 6.27566 14.2119 6.15121Z" fill="#FF375F"/>
</g>
<defs>
<clipPath id="clip0_8_1570">
<rect width="14" height="14" fill="white" transform="matrix(1 0 0 -1 0.211914 13.9912)"/>
</clipPath>
</defs>
</svg>
