<svg width="18" height="19" viewBox="0 0 18 19" fill="none" xmlns="http://www.w3.org/2000/svg">
<g clipPath="url(#clip0_8_1523)">
<path d="M14.7063 7.62018V6.54018C14.7063 5.38018 14.4163 4.31018 13.8363 3.33018C13.2563 2.35018 12.4863 1.58018 11.5263 1.02018C10.5663 0.460176 9.50632 0.180176 8.34632 0.180176C7.18632 0.180176 6.12632 0.460176 5.16632 1.02018C4.20632 1.58018 3.43632 2.35018 2.85632 3.33018C2.27632 4.31018 1.98632 5.38018 1.98632 6.54018V7.62018H1.74632C1.22632 7.62018 0.806316 7.81018 0.486316 8.19018C0.166316 8.57018 0.00631579 9.00018 0.00631579 9.48018V12.3002C-0.0336842 12.7802 0.116316 13.1902 0.456316 13.5302C0.796316 13.8702 1.20632 14.0602 1.68632 14.1002H3.36632C3.48632 14.1002 3.58632 14.0502 3.66632 13.9502C3.74632 13.8502 3.78632 13.7402 3.78632 13.6202V8.16018C3.78632 8.00018 3.74632 7.87018 3.66632 7.77018C3.58632 7.67018 3.48632 7.62018 3.36632 7.62018H2.88632V6.54018C2.88632 5.54018 3.12632 4.62018 3.60632 3.78018C4.08632 2.94018 4.74632 2.28018 5.58632 1.80018C6.42632 1.32018 7.34632 1.08018 8.34632 1.08018C9.34632 1.08018 10.2563 1.32018 11.0763 1.80018C11.8963 2.28018 12.5563 2.94018 13.0563 3.78018C13.5563 4.62018 13.8063 5.54018 13.8063 6.54018V7.62018H13.3263C13.2063 7.62018 13.1063 7.67018 13.0263 7.77018C12.9463 7.87018 12.9063 8.00018 12.9063 8.16018V13.6202C12.9063 13.7402 12.9363 13.8402 12.9963 13.9202C13.0563 14.0002 13.1463 14.0602 13.2663 14.1002H13.8063L13.7463 14.1602C13.4263 14.6002 13.0163 14.9402 12.5163 15.1802C12.0163 15.4202 11.4863 15.5402 10.9263 15.5402C10.8063 14.9402 10.4963 14.4702 9.99632 14.1302C9.49632 13.7902 8.94632 13.7002 8.34632 13.8602C7.82632 13.9402 7.40632 14.1802 7.08632 14.5802C6.76632 14.9802 6.60632 15.4402 6.60632 15.9602C6.60632 16.6002 6.81632 17.1302 7.23632 17.5502C7.65632 17.9702 8.17632 18.1802 8.79632 18.1802C9.41632 18.1802 9.94632 17.9402 10.3863 17.4602C10.7063 17.1802 10.8863 16.8402 10.9263 16.4402C11.6463 16.4402 12.3163 16.2802 12.9363 15.9602C13.5563 15.6402 14.0663 15.2002 14.4663 14.6402L14.8863 14.0402C15.3663 14.0002 15.7463 13.8402 16.0263 13.5602C16.3063 13.2802 16.4463 12.9202 16.4463 12.4802V9.72018C16.4463 9.20018 16.2863 8.72018 15.9663 8.28018C15.6463 7.84018 15.2263 7.62018 14.7063 7.62018ZM2.88632 13.2002H1.74632C1.50632 13.2002 1.29632 13.1102 1.11632 12.9302C0.936316 12.7502 0.846316 12.5402 0.846316 12.3002V9.48018C0.846316 9.24018 0.936316 9.02018 1.11632 8.82018C1.29632 8.62018 1.50632 8.52018 1.74632 8.52018H2.88632V13.2002ZM9.78632 16.8602C9.50632 17.1402 9.18632 17.2802 8.82632 17.2802C8.46632 17.2802 8.15632 17.1502 7.89632 16.8902C7.63632 16.6302 7.49632 16.3202 7.47632 15.9602C7.45632 15.6002 7.57632 15.2902 7.83632 15.0302C8.09632 14.7702 8.40632 14.6402 8.76632 14.6402C9.12632 14.6402 9.43632 14.7702 9.69632 15.0302C9.95632 15.2902 10.0863 15.6002 10.0863 15.9602C10.1263 16.3202 10.0263 16.6202 9.78632 16.8602ZM15.6063 12.4802C15.6063 12.7602 15.5063 12.9502 15.3063 13.0502C15.1063 13.1502 14.9063 13.2002 14.7063 13.2002H13.8063V8.52018H14.7063C14.9463 8.52018 15.1563 8.65018 15.3363 8.91018C15.5163 9.17018 15.6063 9.44018 15.6063 9.72018V12.4802Z" fill="#FF375F"/>
</g>
<defs>
<clipPath id="clip0_8_1523">
<rect width="18" height="18" fill="white" transform="matrix(1 0 0 -1 0 18.1802)"/>
</clipPath>
</defs>
</svg>
