<svg width="17" height="17" viewBox="0 0 17 17" fill="none" xmlns="http://www.w3.org/2000/svg">
<g clipPath="url(#clip0_8_1589)">
<path d="M7.6486 6.67122C7.28416 6.67122 6.9486 6.76011 6.64193 6.93789C6.33527 7.11567 6.09304 7.35789 5.91527 7.66456C5.73749 7.97122 5.6486 8.30678 5.6486 8.67122C5.6486 9.03567 5.73749 9.37122 5.91527 9.67789C6.09304 9.98456 6.33527 10.2268 6.64193 10.4046C6.9486 10.5823 7.28416 10.6712 7.6486 10.6712C8.01304 10.6712 8.3486 10.5823 8.65527 10.4046C8.96193 10.2268 9.20416 9.98456 9.38193 9.67789C9.55971 9.37122 9.6486 9.03567 9.6486 8.67122C9.6486 8.30678 9.55971 7.97122 9.38193 7.66456C9.20416 7.35789 8.96193 7.11567 8.65527 6.93789C8.3486 6.76011 8.01304 6.67122 7.6486 6.67122ZM7.6486 5.33789C8.25305 5.33789 8.81082 5.48678 9.32193 5.78456C9.83305 6.08233 10.2375 6.48678 10.5353 6.99789C10.833 7.509 10.9819 8.06678 10.9819 8.67122C10.9819 9.27567 10.833 9.83345 10.5353 10.3446C10.2375 10.8557 9.83305 11.2601 9.32193 11.5579C8.81082 11.8557 8.25305 12.0046 7.6486 12.0046C7.04416 12.0046 6.48638 11.8557 5.97527 11.5579C5.46416 11.2601 5.05971 10.8557 4.76193 10.3446C4.46416 9.83345 4.31527 9.27567 4.31527 8.67122C4.31527 8.06678 4.46416 7.509 4.76193 6.99789C5.05971 6.48678 5.46416 6.08233 5.97527 5.78456C6.48638 5.48678 7.04416 5.33789 7.6486 5.33789ZM11.9819 5.16456C11.9819 5.39567 11.8997 5.59345 11.7353 5.75789C11.5708 5.92233 11.3753 6.00456 11.1486 6.00456C10.9219 6.00456 10.7264 5.92233 10.5619 5.75789C10.3975 5.59345 10.3153 5.39789 10.3153 5.17122C10.3153 4.94456 10.3975 4.749 10.5619 4.58456C10.7264 4.42011 10.9219 4.33789 11.1486 4.33789C11.3753 4.33789 11.5708 4.42011 11.7353 4.58456C11.8997 4.749 11.9819 4.94678 11.9819 5.17789V5.16456ZM7.6486 3.33789C6.83082 3.33789 6.27527 3.34011 5.98193 3.34456C5.6886 3.349 5.35082 3.36011 4.9686 3.37789C4.4886 3.39567 4.0886 3.47122 3.7686 3.60456C3.49304 3.70233 3.25082 3.85567 3.04193 4.06456C2.83304 4.27345 2.67527 4.51567 2.5686 4.79122C2.44416 5.11122 2.37304 5.51122 2.35527 5.99122C2.33749 6.35567 2.32638 6.68233 2.32193 6.97122C2.31749 7.26011 2.31527 7.82678 2.31527 8.67122C2.31527 9.489 2.31749 10.0446 2.32193 10.3379C2.32638 10.6312 2.33749 10.969 2.35527 11.3512C2.37304 11.8312 2.44416 12.2312 2.5686 12.5512C2.68416 12.8268 2.84416 13.069 3.0486 13.2779C3.25304 13.4868 3.49304 13.6401 3.7686 13.7379C4.0886 13.8712 4.4886 13.9468 4.9686 13.9646C5.33305 13.9823 5.65971 13.9934 5.9486 13.9979C6.23749 14.0023 6.80416 14.0046 7.6486 14.0046C8.46638 14.0046 9.02193 14.0023 9.31527 13.9979C9.6086 13.9934 9.94638 13.9823 10.3286 13.9646C10.8086 13.9468 11.2086 13.8757 11.5286 13.7512C11.8042 13.6357 12.0464 13.4757 12.2553 13.2712C12.4642 13.0668 12.6219 12.8268 12.7286 12.5512C12.853 12.2312 12.9242 11.8312 12.9419 11.3512C12.9597 10.9868 12.9708 10.6601 12.9753 10.3712C12.9797 10.0823 12.9819 9.51567 12.9819 8.67122C12.9819 7.85345 12.9797 7.29789 12.9753 7.00456C12.9708 6.71122 12.9597 6.37345 12.9419 5.99122C12.9242 5.51122 12.8486 5.11122 12.7153 4.79122C12.6175 4.51567 12.4642 4.27345 12.2553 4.06456C12.0464 3.85567 11.8042 3.69789 11.5286 3.59122C11.2086 3.46678 10.8086 3.39567 10.3286 3.37789C9.96416 3.36011 9.63749 3.349 9.3486 3.34456C9.05971 3.34011 8.49304 3.33789 7.6486 3.33789ZM7.6486 2.00456C8.51971 2.00456 9.11527 2.009 9.43527 2.01789C9.70193 2.01789 10.0219 2.02678 10.3953 2.04456C11.0175 2.07122 11.5553 2.17345 12.0086 2.35122C12.4619 2.529 12.8597 2.78678 13.2019 3.12456C13.5442 3.46233 13.8019 3.85789 13.9753 4.31122C14.1486 4.76456 14.2486 5.30233 14.2753 5.92456C14.293 6.30678 14.3019 6.62678 14.3019 6.88456C14.3108 7.22233 14.3153 7.82233 14.3153 8.68456C14.3153 9.54678 14.3108 10.1379 14.3019 10.4579C14.3019 10.7246 14.293 11.0446 14.2753 11.4179C14.2486 12.0401 14.1486 12.5779 13.9753 13.0312C13.8019 13.4846 13.5442 13.8823 13.2019 14.2246C12.8597 14.5668 12.4619 14.8246 12.0086 14.9979C11.5553 15.1712 11.0175 15.2712 10.3953 15.2979C10.013 15.3157 9.69304 15.3246 9.43527 15.3246C9.09749 15.3334 8.49749 15.3379 7.63527 15.3379C6.77305 15.3379 6.18193 15.3334 5.86193 15.3246C5.59527 15.3246 5.27527 15.3157 4.90193 15.2979C4.27971 15.2712 3.74193 15.1712 3.2886 14.9979C2.83527 14.8246 2.43749 14.5668 2.09527 14.2246C1.75304 13.8823 1.49527 13.4846 1.32193 13.0312C1.1486 12.5779 1.0486 12.0401 1.02193 11.4179C1.00416 11.0357 0.995267 10.7157 0.995267 10.4579C0.986378 10.1201 0.981934 9.52011 0.981934 8.65789C0.981934 7.79567 0.986378 7.20456 0.995267 6.88456C0.995267 6.61789 1.00416 6.29789 1.02193 5.92456C1.0486 5.30233 1.1486 4.76456 1.32193 4.31122C1.49527 3.85789 1.75304 3.46011 2.09527 3.11789C2.43749 2.77567 2.83527 2.51789 3.2886 2.34456C3.74193 2.17122 4.27971 2.07122 4.90193 2.04456C5.28416 2.02678 5.60416 2.01789 5.86193 2.01789C6.19971 2.009 6.79527 2.00456 7.6486 2.00456Z" fill="#002856"/>
</g>
<defs>
<clipPath id="clip0_8_1589">
<rect width="16" height="16" fill="white" transform="matrix(1 0 0 -1 0.981934 16.6709)"/>
</clipPath>
</defs>
</svg>
