<svg width="17" height="17" viewBox="0 0 17 17" fill="none" xmlns="http://www.w3.org/2000/svg">
<path d="M8.66667 6.17952C8.30222 6.17952 7.96667 6.26841 7.66 6.44619C7.35333 6.62397 7.11111 6.86619 6.93333 7.17286C6.75556 7.47952 6.66667 7.81508 6.66667 8.17952C6.66667 8.54397 6.75556 8.87952 6.93333 9.18619C7.11111 9.49286 7.35333 9.73508 7.66 9.91286C7.96667 10.0906 8.30222 10.1795 8.66667 10.1795C9.03111 10.1795 9.36667 10.0906 9.67333 9.91286C9.98 9.73508 10.2222 9.49286 10.4 9.18619C10.5778 8.87952 10.6667 8.54397 10.6667 8.17952C10.6667 7.81508 10.5778 7.47952 10.4 7.17286C10.2222 6.86619 9.98 6.62397 9.67333 6.44619C9.36667 6.26841 9.03111 6.17952 8.66667 6.17952ZM8.66667 4.84619C9.27111 4.84619 9.82889 4.99508 10.34 5.29286C10.8511 5.59064 11.2556 5.99508 11.5533 6.50619C11.8511 7.0173 12 7.57508 12 8.17952C12 8.78397 11.8511 9.34175 11.5533 9.85286C11.2556 10.364 10.8511 10.7684 10.34 11.0662C9.82889 11.364 9.27111 11.5129 8.66667 11.5129C8.06222 11.5129 7.50444 11.364 6.99333 11.0662C6.48222 10.7684 6.07778 10.364 5.78 9.85286C5.48222 9.34175 5.33333 8.78397 5.33333 8.17952C5.33333 7.57508 5.48222 7.0173 5.78 6.50619C6.07778 5.99508 6.48222 5.59064 6.99333 5.29286C7.50444 4.99508 8.06222 4.84619 8.66667 4.84619ZM13 4.67286C13 4.90397 12.9178 5.10175 12.7533 5.26619C12.5889 5.43064 12.3933 5.51286 12.1667 5.51286C11.94 5.51286 11.7444 5.43064 11.58 5.26619C11.4156 5.10175 11.3333 4.90619 11.3333 4.67952C11.3333 4.45286 11.4156 4.2573 11.58 4.09286C11.7444 3.92841 11.94 3.84619 12.1667 3.84619C12.3933 3.84619 12.5889 3.92841 12.7533 4.09286C12.9178 4.2573 13 4.45508 13 4.68619V4.67286ZM8.66667 2.84619C7.84889 2.84619 7.29333 2.84841 7 2.85286C6.70667 2.8573 6.36889 2.86841 5.98667 2.88619C5.50667 2.90397 5.10667 2.97952 4.78667 3.11286C4.51111 3.21064 4.26889 3.36397 4.06 3.57286C3.85111 3.78175 3.69333 4.02397 3.58667 4.29952C3.46222 4.61952 3.39111 5.01952 3.37333 5.49952C3.35556 5.86397 3.34444 6.19064 3.34 6.47952C3.33556 6.76841 3.33333 7.33508 3.33333 8.17952C3.33333 8.9973 3.33556 9.55286 3.34 9.84619C3.34444 10.1395 3.35556 10.4773 3.37333 10.8595C3.39111 11.3395 3.46222 11.7395 3.58667 12.0595C3.70222 12.3351 3.86222 12.5773 4.06667 12.7862C4.27111 12.9951 4.51111 13.1484 4.78667 13.2462C5.10667 13.3795 5.50667 13.4551 5.98667 13.4729C6.35111 13.4906 6.67778 13.5017 6.96667 13.5062C7.25556 13.5106 7.82222 13.5129 8.66667 13.5129C9.48444 13.5129 10.04 13.5106 10.3333 13.5062C10.6267 13.5017 10.9644 13.4906 11.3467 13.4729C11.8267 13.4551 12.2267 13.384 12.5467 13.2595C12.8222 13.144 13.0644 12.984 13.2733 12.7795C13.4822 12.5751 13.64 12.3351 13.7467 12.0595C13.8711 11.7395 13.9422 11.3395 13.96 10.8595C13.9778 10.4951 13.9889 10.1684 13.9933 9.87952C13.9978 9.59064 14 9.02397 14 8.17952C14 7.36175 13.9978 6.80619 13.9933 6.51286C13.9889 6.21952 13.9778 5.88175 13.96 5.49952C13.9422 5.01952 13.8667 4.61952 13.7333 4.29952C13.6356 4.02397 13.4822 3.78175 13.2733 3.57286C13.0644 3.36397 12.8222 3.20619 12.5467 3.09952C12.2267 2.97508 11.8267 2.90397 11.3467 2.88619C10.9822 2.86841 10.6556 2.8573 10.3667 2.85286C10.0778 2.84841 9.51111 2.84619 8.66667 2.84619ZM8.66667 1.51286C9.53778 1.51286 10.1333 1.5173 10.4533 1.52619C10.72 1.52619 11.04 1.53508 11.4133 1.55286C12.0356 1.57952 12.5733 1.68175 13.0267 1.85952C13.48 2.0373 13.8778 2.29508 14.22 2.63286C14.5622 2.97064 14.82 3.36619 14.9933 3.81952C15.1667 4.27286 15.2667 4.81064 15.2933 5.43286C15.3111 5.81508 15.32 6.13508 15.32 6.39286C15.3289 6.73064 15.3333 7.33064 15.3333 8.19286C15.3333 9.05508 15.3289 9.64619 15.32 9.96619C15.32 10.2329 15.3111 10.5529 15.2933 10.9262C15.2667 11.5484 15.1667 12.0862 14.9933 12.5395C14.82 12.9929 14.5622 13.3906 14.22 13.7329C13.8778 14.0751 13.48 14.3329 13.0267 14.5062C12.5733 14.6795 12.0356 14.7795 11.4133 14.8062C11.0311 14.824 10.7111 14.8329 10.4533 14.8329C10.1156 14.8417 9.51556 14.8462 8.65333 14.8462C7.79111 14.8462 7.2 14.8417 6.88 14.8329C6.61333 14.8329 6.29333 14.824 5.92 14.8062C5.29778 14.7795 4.76 14.6795 4.30667 14.5062C3.85333 14.3329 3.45556 14.0751 3.11333 13.7329C2.77111 13.3906 2.51333 12.9929 2.34 12.5395C2.16667 12.0862 2.06667 11.5484 2.04 10.9262C2.02222 10.544 2.01333 10.224 2.01333 9.96619C2.00444 9.62841 2 9.02841 2 8.16619C2 7.30397 2.00444 6.71286 2.01333 6.39286C2.01333 6.12619 2.02222 5.80619 2.04 5.43286C2.06667 4.81064 2.16667 4.27286 2.34 3.81952C2.51333 3.36619 2.77111 2.96841 3.11333 2.62619C3.45556 2.28397 3.85333 2.02619 4.30667 1.85286C4.76 1.67952 5.29778 1.57952 5.92 1.55286C6.30222 1.53508 6.62222 1.52619 6.88 1.52619C7.21778 1.5173 7.81333 1.51286 8.66667 1.51286Z" fill="#002856"/>
</svg>
